<svg id="Logo" xmlns="http://www.w3.org/2000/svg" width="104.159" height="121" viewBox="0 0 104.159 121">
  <rect id="Rectangle_10" data-name="Rectangle 10" width="22" height="69" transform="translate(52)" fill="red"/>
  <path id="Path_10" data-name="Path 10" d="M0,0H104.159V121H0Z"/>
  <path id="Icon_simple-atom" data-name="Icon simple-atom" d="M36.525,15.892a44.609,44.609,0,0,0-14.7-3.043c-.891-.054-1.759-.072-2.584-.072C23.369,7.7,27.8,4.284,30.71,4.176a2.423,2.423,0,0,1,1.449.352c1.258.822,1.613,3.174.971,6.446a.845.845,0,0,0,.642.97.815.815,0,0,0,.962-.646c.8-4.094.214-6.906-1.675-8.148a4.036,4.036,0,0,0-2.406-.621c-3.653.138-8.8,4.13-13.527,10.27a45.694,45.694,0,0,0-5.76.515c-1.151-5.2-.7-8.936,1.059-9.834a2.032,2.032,0,0,1,.814-.223c1.242-.1,2.958.709,4.83,2.28A.808.808,0,0,0,19.22,5.43a.826.826,0,0,0-.107-1.158C16.868,2.4,14.8,1.481,13.1,1.607a3.976,3.976,0,0,0-1.431.4C9.552,3.092,8.7,6.18,9.231,10.689c.125.934.285,1.907.517,2.909C3.9,14.775.176,17.134.016,20.1c-.107,2.1,1.542,4.1,4.776,5.785a.823.823,0,0,0,.749-1.465c-2.584-1.339-3.974-2.851-3.89-4.234.089-1.939,3.158-3.932,8.483-4.992A48.96,48.96,0,0,0,12,20.747a40.119,40.119,0,0,0-3.808,9.7c-1,4.426-.463,7.577,1.533,8.884a3.981,3.981,0,0,0,2.222.628c1.666,0,3.684-.826,5.965-2.463a.826.826,0,0,0,.2-1.149.809.809,0,0,0-1.141-.19c-2.752,1.98-5.068,2.643-6.348,1.8-1.354-.889-1.65-3.489-.82-7.139A37.169,37.169,0,0,1,12.847,22.7q.535,1.18,1.123,2.358a45.155,45.155,0,0,0,8.75,12.29c2.47,2.316,4.765,3.525,6.656,3.525a3.837,3.837,0,0,0,1.739-.4c2.041-1.05,2.923-3.968,2.491-8.214a43.314,43.314,0,0,0-4.2-13.646.819.819,0,0,0-1.087-.388.828.828,0,0,0-.392,1.1C32.727,29.38,33.066,37.618,30.375,39c-2.834,1.46-9.666-4.228-14.952-14.687-.606-1.176-1.135-2.334-1.6-3.465.606-1.092,1.248-2.191,1.951-3.286s1.436-2.133,2.181-3.133h.7c.962,0,2.007.018,3.09.086,11.637.616,19.559,4.6,19.4,7.782-.071,1.374-1.647,2.762-4.322,3.806a.835.835,0,0,0-.463,1.07.812.812,0,0,0,.759.524.833.833,0,0,0,.3-.054c3.4-1.329,5.257-3.153,5.364-5.261.125-2.388-2.085-4.686-6.238-6.464V15.9ZM14.4,16.653c-.481.745-.927,1.485-1.362,2.234-.52-1.379-.948-2.711-1.288-3.977,1.271-.2,2.647-.341,4.117-.431q-.749,1.05-1.461,2.173v-.018Zm6.995,2.11a2.469,2.469,0,1,0,2.45,2.469A2.46,2.46,0,0,0,21.393,18.763Z" transform="translate(55.217 7.905)" fill="#fff"/>
  <text id="Community_science_Museum" data-name="Community
science 
Museum" transform="translate(5 80)" fill="#fff" font-size="15" font-family="Arial-BoldMT, Arial" font-weight="700"><tspan x="0" y="0">COMMUNITY</tspan><tspan x="0" y="17">SCIENCE </tspan><tspan x="0" y="34">MUSEUM</tspan></text>
</svg>
